<svg id="Capa_1" enable-background="new 0 0 512 512" height="512" viewBox="0 0 512 512" width="512" xmlns="http://www.w3.org/2000/svg"><g><g><path d="m126.164 2.663 8.324 23.407c.356 1.002 1.062 1.796 1.952 2.197l20.796 9.37c2.938 1.324 2.938 6.005 0 7.328l-20.796 9.369c-.891.401-1.596 1.195-1.952 2.198l-8.324 23.407c-1.176 3.307-5.335 3.307-6.511 0l-8.324-23.407c-.356-1.002-1.062-1.796-1.952-2.198l-20.797-9.368c-2.938-1.324-2.938-6.005 0-7.328l20.796-9.37c.89-.401 1.596-1.195 1.952-2.197l8.324-23.407c1.177-3.307 5.336-3.307 6.512-.001z"/><path d="m453.385 263.262 6.175 17.363c.264.743.788 1.332 1.448 1.63l15.426 6.95c2.179.982 2.179 4.454 0 5.436l-15.426 6.95c-.66.297-1.184.887-1.448 1.63l-6.175 17.363c-.872 2.453-3.957 2.453-4.83 0l-6.175-17.363c-.264-.743-.788-1.333-1.448-1.63l-15.426-6.95c-2.179-.982-2.179-4.454 0-5.436l15.426-6.95c.66-.298 1.184-.887 1.448-1.63l6.175-17.363c.872-2.453 3.957-2.453 4.83 0z"/><circle cx="61.489" cy="124.948" r="12.231"/></g><g><path d="m481.985 22.511h-204.647c-5.856-13.242-19.111-22.511-34.498-22.511-20.791 0-37.706 16.914-37.706 37.706v173.617c-3.535-1.246-7.281-1.901-11.145-1.901-.217-.001-.451.005-.677.02-.649.041-11.639.297-23.486 3.168-4.205 1.019-8.921 2.284-13.004 3.352l-38.663 11.259c-22.963 5.489-41.608 23.479-47.92 45.309l-40.32.382c-5.563.053-10.029 4.605-9.977 10.168.053 5.53 4.552 9.978 10.071 9.977h.097l48.393-.458c5.021-.048 9.24-3.785 9.892-8.764 2.304-17.583 16.545-32.824 34.634-37.063.173-.041.346-.086.518-.136l35.557-10.355c.716-.194 5.677-1.66 6.251-1.879 11.864-3.475 26.561-4.661 28.907-4.832 4.958.095 8.33 2.771 10.297 5.025 2.945 3.373 4.643 7.957 4.665 12.584l-.149 14.301c-.229 7.023 7.368 12.18 13.8 9.458.026.041.045.089.072.128.561-.432 62.592-8.153 65.388-8.558 3.712-.174 7.247 1.071 10.018 3.541 2.838 2.528 4.501 6.011 4.685 9.807.181 3.746-1.108 7.339-3.629 10.116-2.52 2.777-5.972 4.406-9.717 4.587-.145.007-.288.017-.433.03l-44.398 4.064c-5.179.474-9.146 4.814-9.154 10.016l-.002 1.344c-.004 2.68 1.06 5.25 2.957 7.143 1.889 1.886 4.448 2.944 7.116 2.944h.033l62.297-.201h.026c3.71 0 7.201 1.443 9.831 4.062 2.635 2.626 4.091 6.122 4.097 9.843.007 3.721-1.436 7.221-4.062 9.856s-6.121 4.09-9.857 4.097l-63.972.204c-5.548.018-10.037 4.519-10.04 10.068-.003 5.548 4.482 10.054 10.031 10.077l16.328.066 23.795-.134h.023c3.445 0 6.686 1.339 9.126 3.771 2.446 2.438 3.797 5.682 3.803 9.136.012 7.129-5.778 12.94-12.923 12.952l-59.811.196c-5.553.018-10.044 4.528-10.039 10.081s4.503 10.055 10.056 10.064l46.648.076c2.894.18 5.558 1.454 7.516 3.601 2.002 2.194 3.03 5.035 2.894 8.002-.136 2.966-1.418 5.702-3.612 7.703-2.194 2.002-5.044 3.03-7.905 2.898l-141.031-7.791c-.186-.01-.371-.015-.557-.015-.026 0-.057 0-.088 0-17.547 0-32.914-11.214-38.25-27.923-1.329-4.16-5.188-6.99-9.555-7.008l-50.413-.202h-.041c-5.544 0-10.049 4.484-10.072 10.032-.023 5.563 4.47 10.091 10.032 10.113l43.568.174c9.732 21.133 30.792 34.884 54.538 34.958l76.949 4.25v25.183c0 20.791 16.915 37.706 37.706 37.706 20.792 0 37.707-16.915 37.707-37.706v-23.269c4.023-1.369 7.759-3.564 10.992-6.515 6.169-5.629 9.776-13.323 10.156-21.664.257-5.594-.958-11.03-3.484-15.864 11.325-5.272 19.188-16.772 19.166-30.064-.008-4.765-1.017-9.375-2.927-13.59 6.716-1.252 12.89-4.498 17.816-9.44 6.424-6.447 9.954-15.011 9.938-24.111-.016-9.102-3.575-17.653-10.021-24.078-4.394-4.378-9.768-7.411-15.632-8.895 4.663-6.311 6.993-13.971 6.608-21.914-.447-9.242-4.497-17.722-11.405-23.876s-15.786-9.203-25.03-8.584c-.201.013-.401.033-.602.059l-5.573.712v-38.775h201.438c5.563 0 10.073-4.51 10.073-10.073v-161.764c-.009-5.563-4.519-10.073-10.082-10.073zm-239.145 469.344c-9.683 0-17.56-7.878-17.56-17.561v-24.07l35.121 1.94v22.129c.001 9.684-7.878 17.562-17.561 17.562zm-13.498-242.119.025-2.413c.001-.041.001-.082.001-.122-.01-6.034-1.455-12.059-4.088-17.45v-192.045c0-9.683 7.877-17.56 17.56-17.56s17.561 7.878 17.561 17.56v208.062zm242.571-65.462h-191.366v-141.617h191.366z"/><path d="m114.186 299.234c-1.338 0-2.697-.268-4.004-.834-5.103-2.214-7.446-8.146-5.232-13.249 2.856-6.584 6.693-14.116 13.501-20.055 4.191-3.657 10.556-3.224 14.212.969 3.657 4.192 3.223 10.555-.968 14.212-3.777 3.295-6.204 8.143-8.264 12.891-1.647 3.797-5.354 6.066-9.245 6.066z"/><path d="m152.91 267.756c-4.365 0-8.387-2.86-9.667-7.262-1.553-5.341 1.518-10.931 6.859-12.485 3.37-.98 6.833-1.763 10.293-2.325 5.499-.891 10.667 2.834 11.559 8.325.893 5.491-2.834 10.666-8.325 11.559-2.656.431-5.314 1.032-7.901 1.784-.939.274-1.886.404-2.818.404z"/></g></g></svg>