<?xml version="1.0" encoding="iso-8859-1"?>
<!-- Generator: Adobe Illustrator 19.0.0, SVG Export Plug-In . SVG Version: 6.00 Build 0)  -->
<svg version="1.1" id="Capa_1" xmlns="http://www.w3.org/2000/svg" xmlns:xlink="http://www.w3.org/1999/xlink" x="0px" y="0px"
	 viewBox="0 0 495.2 495.2" style="enable-background:new 0 0 495.2 495.2;" xml:space="preserve">
<g>
	<g>
		<path d="M359.481,111.74C320.128,79.325,268.657,65.558,218.376,74c-5.736,0.96-11.392,2.24-16.968,3.752
			c-1.6,0.432-3.2,0.904-4.8,1.376c-33.237,10.037-62.759,29.686-84.848,56.472c-61.856,74.981-51.216,185.909,23.764,247.764
			c31.549,26.026,71.177,40.253,112.076,40.236c13.028,0.005,26.016-1.43,38.728-4.28c4.128-0.928,8.192-2.056,12.232-3.272
			c33.244-10.026,62.778-29.667,84.88-56.448C445.269,284.539,434.542,173.569,359.481,111.74z M130.128,138.92
			c3.576-3.856,7.336-7.496,11.2-10.952c0.296-0.264,0.584-0.552,0.888-0.8c3.752-3.288,7.672-6.352,11.688-9.256
			c0.52-0.376,1.024-0.8,1.552-1.136c3.936-2.768,7.989-5.347,12.16-7.736c0.648-0.376,1.296-0.8,1.952-1.128
			c4.139-2.315,8.373-4.435,12.704-6.36l2.152-0.944c2.744-1.176,5.6-2.144,8.384-3.2c-14.751,15.994-26.054,34.852-33.208,55.4
			c-10.268-3.661-20.165-8.287-29.56-13.816L130.128,138.92z M119.888,151.392c10.971,6.696,22.603,12.242,34.712,16.552
			c-6.672,23.319-10.292,47.406-10.768,71.656h-55.88C89.564,207.671,100.686,176.953,119.888,151.392z M119.888,343.808
			c-19.201-25.561-30.323-56.279-31.936-88.208h55.88c0.475,24.25,4.095,48.337,10.768,71.656
			C142.493,331.569,130.861,337.116,119.888,343.808z M184.408,394.568c-0.68-0.272-1.376-0.568-2.064-0.888
			c-4.352-1.944-8.624-4.072-12.8-6.4c-0.624-0.344-1.232-0.712-1.856-1.064c-4.192-2.4-8.296-5.008-12.272-7.816
			c-0.472-0.336-0.936-0.688-1.408-1.032c-4.064-2.928-8-6.032-11.816-9.352c-0.256-0.232-0.504-0.48-0.8-0.704
			c-3.944-3.504-7.752-7.2-11.368-11.088c9.401-5.532,19.304-10.163,29.576-13.832c7.159,20.54,18.465,39.389,33.216,55.376
			C190,396.744,187.16,395.776,184.408,394.568z M239.6,406.864c-26.848-4.424-50.256-30.816-64.696-69.248
			c21.089-5.833,42.82-9.025,64.696-9.504V406.864z M239.6,312.128c-23.583,0.486-47.01,3.943-69.728,10.288
			c-6.181-21.753-9.558-44.207-10.048-66.816H239.6V312.128z M239.6,239.6h-79.776c0.487-22.603,3.861-45.052,10.04-66.8
			c22.709,6.43,46.141,9.959,69.736,10.504V239.6z M239.6,167.104c-21.874-0.486-43.603-3.683-64.69-9.518
			c14.4-38.392,37.846-64.786,64.69-69.234V167.104z M375.312,151.392c19.201,25.561,30.323,56.279,31.936,88.208h-55.88
			c-0.475-24.25-4.095-48.337-10.768-71.656C352.707,163.631,364.339,158.084,375.312,151.392z M310.768,100.624l2.112,0.904
			c4.336,1.936,8.592,4.056,12.736,6.4c0.64,0.36,1.272,0.736,1.912,1.104c4.176,2.4,8.256,4.984,12.208,7.768
			c0.504,0.352,0.992,0.736,1.488,1.096c4,2.912,8,5.992,11.752,9.296c0.28,0.248,0.544,0.512,0.8,0.76
			c3.928,3.488,7.72,7.152,11.328,11.048c-9.379,5.52-19.257,10.143-29.504,13.808c-7.16-20.544-18.469-39.396-33.224-55.384
			C305.192,98.448,308.024,99.416,310.768,100.624z M255.6,88.336c26.848,4.424,50.256,30.816,64.696,69.248
			c-21.089,5.833-42.82,9.025-64.696,9.504V88.336z M255.6,183.304c23.595-0.546,47.027-4.076,69.736-10.504
			c6.179,21.748,9.553,44.197,10.04,66.8H255.6V183.304z M255.6,255.6h79.776c-0.49,22.612-3.867,45.068-10.048,66.824
			c-22.717-6.351-46.145-9.807-69.728-10.288V255.6z M255.6,406.872v-78.76c21.875,0.481,43.607,3.673,64.696,9.504l0,0.008
			C305.856,376.024,282.448,402.424,255.6,406.872z M365.04,356.28c-3.584,3.872-7.36,7.52-11.272,10.984
			c-0.28,0.256-0.544,0.52-0.8,0.8c-3.776,3.304-7.712,6.4-11.752,9.304c-0.496,0.36-0.976,0.728-1.48,1.08
			c-3.952,2.792-8.04,5.376-12.216,7.784c-0.632,0.36-1.264,0.736-1.896,1.088c-4.149,2.32-8.4,4.453-12.752,6.4l-2.112,0.928
			c-2.744,1.176-5.6,2.144-8.392,3.2c14.766-16.009,26.078-34.886,33.232-55.456c10.281,3.659,20.193,8.285,29.6,13.816
			L365.04,356.28z M375.312,343.808h-0.032c-10.971-6.696-22.603-12.242-34.712-16.552c6.683-23.318,10.314-47.404,10.8-71.656
			h55.88C405.636,287.529,394.514,318.247,375.312,343.808z"/>
	</g>
</g>
<g>
	<g>
		<path d="M447.6,247.6c-0.123,110.406-89.594,199.877-200,200H138.912l20.28-20.288L147.88,416l-39.592,39.6l39.592,39.6
			l11.312-11.312l-20.28-20.288H247.6c119.239-0.132,215.868-96.761,216-216H447.6z"/>
	</g>
</g>
<g>
	<g>
		<path d="M331.32,0l-11.312,11.312l20.28,20.288H247.6c-119.239,0.132-215.868,96.761-216,216h16
			c0.123-110.406,89.594-199.877,200-200h92.688l-20.28,20.288L331.32,79.2l39.592-39.6L331.32,0z"/>
	</g>
</g>
<g>
</g>
<g>
</g>
<g>
</g>
<g>
</g>
<g>
</g>
<g>
</g>
<g>
</g>
<g>
</g>
<g>
</g>
<g>
</g>
<g>
</g>
<g>
</g>
<g>
</g>
<g>
</g>
<g>
</g>
</svg>
